<svg width="342" height="190" viewBox="0 0 342 190" fill="none" xmlns="http://www.w3.org/2000/svg">
<path d="M0 95L7.812 71.42H12.06L19.872 95H15.984L12.168 82.184C11.76 80.888 11.376 79.592 11.016 78.296C10.656 76.976 10.296 75.656 9.936 74.336H9.792C9.456 75.656 9.096 76.976 8.712 78.296C8.352 79.592 7.98 80.888 7.596 82.184L3.744 95H0ZM4.392 88.268V85.388H15.372V88.268H4.392ZM26.5233 95L20.2953 77.396H24.0033L27.0273 86.9C27.2673 87.764 27.5193 88.64 27.7833 89.528C28.0473 90.416 28.3113 91.292 28.5753 92.156H28.7193C28.9593 91.292 29.2113 90.416 29.4753 89.528C29.7393 88.64 30.0033 87.764 30.2673 86.9L33.2913 77.396H36.8193L30.7353 95H26.5233ZM47.0936 95.432C45.6296 95.432 44.2736 95.072 43.0256 94.352C41.7776 93.632 40.7576 92.588 39.9656 91.22C39.1976 89.828 38.8136 88.16 38.8136 86.216C38.8136 84.272 39.1976 82.616 39.9656 81.248C40.7576 79.856 41.7776 78.8 43.0256 78.08C44.2736 77.336 45.6296 76.964 47.0936 76.964C48.5336 76.964 49.8776 77.336 51.1256 78.08C52.3976 78.8 53.4176 79.856 54.1856 81.248C54.9776 82.616 55.3736 84.272 55.3736 86.216C55.3736 88.16 54.9776 89.828 54.1856 91.22C53.4176 92.588 52.3976 93.632 51.1256 94.352C49.8776 95.072 48.5336 95.432 47.0936 95.432ZM47.0936 92.444C48.0296 92.444 48.8336 92.192 49.5056 91.688C50.2016 91.16 50.7296 90.428 51.0896 89.492C51.4496 88.556 51.6296 87.464 51.6296 86.216C51.6296 84.968 51.4496 83.876 51.0896 82.94C50.7296 81.98 50.2016 81.248 49.5056 80.744C48.8336 80.216 48.0296 79.952 47.0936 79.952C46.1576 79.952 45.3536 80.216 44.6816 80.744C44.0096 81.248 43.4816 81.98 43.0976 82.94C42.7376 83.876 42.5576 84.968 42.5576 86.216C42.5576 87.464 42.7376 88.556 43.0976 89.492C43.4816 90.428 44.0096 91.16 44.6816 91.688C45.3536 92.192 46.1576 92.444 47.0936 92.444ZM59.69 95V77.396H63.326V95H59.69ZM61.526 74.084C60.902 74.084 60.374 73.88 59.942 73.472C59.51 73.04 59.294 72.512 59.294 71.888C59.294 71.264 59.51 70.748 59.942 70.34C60.374 69.932 60.902 69.728 61.526 69.728C62.174 69.728 62.702 69.932 63.11 70.34C63.542 70.748 63.758 71.264 63.758 71.888C63.758 72.512 63.542 73.04 63.11 73.472C62.702 73.88 62.174 74.084 61.526 74.084ZM74.9498 95.432C72.7658 95.432 71.0138 94.628 69.6938 93.02C68.3738 91.388 67.7138 89.12 67.7138 86.216C67.7138 84.32 68.0618 82.688 68.7578 81.32C69.4778 79.928 70.4138 78.86 71.5658 78.116C72.7178 77.348 73.9418 76.964 75.2378 76.964C76.2698 76.964 77.1458 77.144 77.8658 77.504C78.5858 77.84 79.2938 78.32 79.9898 78.944L79.8458 76.028V69.476H83.4818V95H80.4938L80.2058 93.02H80.0978C79.4498 93.668 78.6818 94.232 77.7938 94.712C76.9058 95.192 75.9578 95.432 74.9498 95.432ZM75.8138 92.408C76.5578 92.408 77.2538 92.24 77.9018 91.904C78.5738 91.544 79.2218 90.992 79.8458 90.248V81.608C79.1978 81.008 78.5498 80.588 77.9018 80.348C77.2778 80.108 76.6298 79.988 75.9578 79.988C75.1178 79.988 74.3618 80.24 73.6898 80.744C73.0178 81.224 72.4778 81.932 72.0698 82.868C71.6618 83.804 71.4578 84.908 71.4578 86.18C71.4578 88.172 71.8298 89.708 72.5738 90.788C73.3418 91.868 74.4218 92.408 75.8138 92.408ZM90.9903 82.832C90.3183 82.832 89.7423 82.592 89.2623 82.112C88.7823 81.632 88.5423 81.02 88.5423 80.276C88.5423 79.508 88.7823 78.884 89.2623 78.404C89.7423 77.924 90.3183 77.684 90.9903 77.684C91.6863 77.684 92.2623 77.924 92.7183 78.404C93.1983 78.884 93.4383 79.508 93.4383 80.276C93.4383 81.02 93.1983 81.632 92.7183 82.112C92.2623 82.592 91.6863 82.832 90.9903 82.832ZM90.9903 95.432C90.3183 95.432 89.7423 95.192 89.2623 94.712C88.7823 94.232 88.5423 93.62 88.5423 92.876C88.5423 92.108 88.7823 91.484 89.2623 91.004C89.7423 90.524 90.3183 90.284 90.9903 90.284C91.6863 90.284 92.2623 90.524 92.7183 91.004C93.1983 91.484 93.4383 92.108 93.4383 92.876C93.4383 93.62 93.1983 94.232 92.7183 94.712C92.2623 95.192 91.6863 95.432 90.9903 95.432Z" fill="black"/>
<ellipse cx="246" cy="95" rx="96" ry="95" fill="#4DD0FF"/>
<path d="M239.125 120.531C240.5 118.781 241.188 117 241.188 115.188L241.281 67.2812C234.781 67.2188 231.5 67.1875 231.438 67.1875C229.938 67.1875 228.594 67.75 227.406 68.875C226.219 70 225.312 71.4062 224.688 73.0938C224.062 74.7188 223.531 76.3438 223.094 77.9688C222.719 79.5312 222.5 81.0312 222.438 82.4688H220.656L221.031 65.0312C228.031 65.2188 236.938 65.3125 247.75 65.3125C257.938 65.3125 265.781 65.2188 271.281 65.0312L271.562 82.4688H269.688C269.125 72.4688 266.531 67.4375 261.906 67.375L250.938 67.2812L251.031 115.188C251.031 117.375 251.625 119.156 252.812 120.531C253.75 121.656 256.312 122.25 260.5 122.312V124.094H231.719V122.312C231.844 122.312 232.031 122.312 232.281 122.312C232.531 122.312 232.719 122.312 232.844 122.312C236.156 122.25 238.25 121.656 239.125 120.531Z" fill="#98E3FF"/>
</svg>
