<svg width="342" height="190" viewBox="0 0 342 190" fill="none" xmlns="http://www.w3.org/2000/svg">
<path d="M3.096 95V71.42H6.768V95H3.096ZM12.6509 95V77.396H15.6389L15.9269 79.844H16.0349C16.8509 79.052 17.7269 78.38 18.6629 77.828C19.5989 77.252 20.6669 76.964 21.8669 76.964C23.7389 76.964 25.1069 77.564 25.9709 78.764C26.8349 79.964 27.2669 81.68 27.2669 83.912V95H23.6309V84.38C23.6309 82.844 23.3909 81.752 22.9109 81.104C22.4549 80.432 21.6989 80.096 20.6429 80.096C19.8029 80.096 19.0589 80.3 18.4109 80.708C17.7869 81.116 17.0789 81.716 16.2869 82.508V95H12.6509ZM37.3725 95.432C36.1485 95.432 34.9485 95.204 33.7725 94.748C32.6205 94.268 31.6125 93.68 30.7485 92.984L32.4765 90.644C33.2445 91.244 34.0245 91.736 34.8165 92.12C35.6325 92.48 36.5205 92.66 37.4805 92.66C38.5365 92.66 39.3165 92.432 39.8205 91.976C40.3245 91.52 40.5765 90.956 40.5765 90.284C40.5765 89.756 40.3845 89.312 40.0005 88.952C39.6165 88.568 39.1245 88.244 38.5245 87.98C37.9485 87.716 37.3365 87.464 36.6885 87.224C35.8965 86.912 35.1045 86.552 34.3125 86.144C33.5445 85.736 32.8965 85.208 32.3685 84.56C31.8645 83.912 31.6125 83.096 31.6125 82.112C31.6125 80.624 32.1645 79.4 33.2685 78.44C34.3965 77.456 35.9325 76.964 37.8765 76.964C39.0525 76.964 40.1205 77.168 41.0805 77.576C42.0405 77.984 42.8685 78.464 43.5645 79.016L41.8725 81.284C41.2485 80.828 40.6125 80.456 39.9645 80.168C39.3405 79.88 38.6685 79.736 37.9485 79.736C36.9645 79.736 36.2325 79.952 35.7525 80.384C35.2965 80.816 35.0685 81.332 35.0685 81.932C35.0685 82.436 35.2485 82.856 35.6085 83.192C35.9685 83.504 36.4365 83.78 37.0125 84.02C37.5885 84.26 38.2005 84.5 38.8485 84.74C39.6645 85.052 40.4685 85.412 41.2605 85.82C42.0525 86.228 42.7125 86.768 43.2405 87.44C43.7685 88.088 44.0325 88.964 44.0325 90.068C44.0325 91.052 43.7685 91.952 43.2405 92.768C42.7365 93.584 41.9925 94.232 41.0085 94.712C40.0245 95.192 38.8125 95.432 37.3725 95.432ZM53.8166 95.432C51.8486 95.432 50.4686 94.868 49.6766 93.74C48.8846 92.588 48.4886 91.1 48.4886 89.276V80.312H45.9326V77.576L48.6686 77.396L49.1006 72.536H52.1246V77.396H56.7326V80.312H52.1246V89.312C52.1246 90.344 52.3286 91.136 52.7366 91.688C53.1446 92.24 53.8046 92.516 54.7166 92.516C55.0286 92.516 55.3526 92.48 55.6886 92.408C56.0486 92.312 56.3606 92.204 56.6246 92.084L57.2726 94.784C56.7926 94.952 56.2526 95.096 55.6526 95.216C55.0526 95.36 54.4406 95.432 53.8166 95.432ZM67.8777 95.432C66.2697 95.432 64.8177 95.072 63.5217 94.352C62.2497 93.608 61.2297 92.552 60.4617 91.184C59.6937 89.816 59.3097 88.16 59.3097 86.216C59.3097 84.32 59.6937 82.688 60.4617 81.32C61.2297 79.928 62.2257 78.86 63.4497 78.116C64.6737 77.348 65.9697 76.964 67.3377 76.964C68.8737 76.964 70.1697 77.312 71.2257 78.008C72.3057 78.704 73.1217 79.676 73.6737 80.924C74.2257 82.172 74.5017 83.624 74.5017 85.28C74.5017 85.616 74.4777 85.964 74.4297 86.324C74.4057 86.66 74.3697 86.936 74.3217 87.152H62.1537L62.1177 84.632H71.3337C71.3337 83.096 70.9977 81.908 70.3257 81.068C69.6777 80.228 68.7057 79.808 67.4097 79.808C66.6417 79.808 65.8977 80.024 65.1777 80.456C64.4577 80.888 63.8577 81.584 63.3777 82.544C62.9217 83.48 62.6937 84.704 62.6937 86.216C62.6937 87.68 62.9577 88.88 63.4857 89.816C64.0137 90.752 64.6977 91.448 65.5377 91.904C66.4017 92.36 67.3377 92.588 68.3457 92.588C69.1377 92.588 69.8697 92.468 70.5417 92.228C71.2377 91.988 71.9097 91.664 72.5577 91.256L73.8177 93.56C73.0017 94.088 72.0897 94.532 71.0817 94.892C70.0977 95.252 69.0297 95.432 67.8777 95.432ZM82.78 95.432C81.772 95.432 80.872 95.228 80.08 94.82C79.312 94.388 78.7 93.8 78.244 93.056C77.812 92.288 77.596 91.388 77.596 90.356C77.596 88.46 78.436 86.996 80.116 85.964C81.796 84.932 84.472 84.212 88.144 83.804C88.144 83.132 88.036 82.496 87.82 81.896C87.628 81.296 87.28 80.816 86.776 80.456C86.296 80.096 85.624 79.916 84.76 79.916C83.824 79.916 82.924 80.096 82.06 80.456C81.22 80.816 80.428 81.236 79.684 81.716L78.316 79.268C78.916 78.884 79.588 78.524 80.332 78.188C81.076 77.828 81.868 77.54 82.708 77.324C83.572 77.084 84.472 76.964 85.408 76.964C86.848 76.964 88.036 77.264 88.972 77.864C89.932 78.464 90.64 79.316 91.096 80.42C91.552 81.524 91.78 82.856 91.78 84.416V95H88.792L88.504 92.984H88.396C87.604 93.656 86.74 94.232 85.804 94.712C84.868 95.192 83.86 95.432 82.78 95.432ZM83.896 92.552C84.664 92.552 85.384 92.372 86.056 92.012C86.728 91.652 87.424 91.136 88.144 90.464V86.108C86.392 86.324 85 86.612 83.968 86.972C82.96 87.332 82.228 87.776 81.772 88.304C81.34 88.832 81.124 89.42 81.124 90.068C81.124 90.932 81.388 91.568 81.916 91.976C82.444 92.36 83.104 92.552 83.896 92.552ZM103.075 95.432C100.891 95.432 99.1388 94.628 97.8188 93.02C96.4988 91.388 95.8388 89.12 95.8388 86.216C95.8388 84.32 96.1868 82.688 96.8828 81.32C97.6028 79.928 98.5388 78.86 99.6908 78.116C100.843 77.348 102.067 76.964 103.363 76.964C104.395 76.964 105.271 77.144 105.991 77.504C106.711 77.84 107.419 78.32 108.115 78.944L107.971 76.028V69.476H111.607V95H108.619L108.331 93.02H108.223C107.575 93.668 106.807 94.232 105.919 94.712C105.031 95.192 104.083 95.432 103.075 95.432ZM103.939 92.408C104.683 92.408 105.379 92.24 106.027 91.904C106.699 91.544 107.347 90.992 107.971 90.248V81.608C107.323 81.008 106.675 80.588 106.027 80.348C105.403 80.108 104.755 79.988 104.083 79.988C103.243 79.988 102.487 80.24 101.815 80.744C101.143 81.224 100.603 81.932 100.195 82.868C99.7868 83.804 99.5828 84.908 99.5828 86.18C99.5828 88.172 99.9548 89.708 100.699 90.788C101.467 91.868 102.547 92.408 103.939 92.408ZM119.115 82.832C118.443 82.832 117.867 82.592 117.387 82.112C116.907 81.632 116.667 81.02 116.667 80.276C116.667 79.508 116.907 78.884 117.387 78.404C117.867 77.924 118.443 77.684 119.115 77.684C119.811 77.684 120.387 77.924 120.843 78.404C121.323 78.884 121.563 79.508 121.563 80.276C121.563 81.02 121.323 81.632 120.843 82.112C120.387 82.592 119.811 82.832 119.115 82.832ZM119.115 95.432C118.443 95.432 117.867 95.192 117.387 94.712C116.907 94.232 116.667 93.62 116.667 92.876C116.667 92.108 116.907 91.484 117.387 91.004C117.867 90.524 118.443 90.284 119.115 90.284C119.811 90.284 120.387 90.524 120.843 91.004C121.323 91.484 121.563 92.108 121.563 92.876C121.563 93.62 121.323 94.232 120.843 94.712C120.387 95.192 119.811 95.432 119.115 95.432Z" fill="black"/>
<ellipse cx="246" cy="95" rx="96" ry="95" fill="#4DD0FF"/>
<path d="M240.125 120.531C241.5 118.781 242.188 117 242.188 115.188L242.281 67.2812C235.781 67.2188 232.5 67.1875 232.438 67.1875C230.938 67.1875 229.594 67.75 228.406 68.875C227.219 70 226.312 71.4062 225.688 73.0938C225.062 74.7188 224.531 76.3438 224.094 77.9688C223.719 79.5312 223.5 81.0312 223.438 82.4688H221.656L222.031 65.0312C229.031 65.2188 237.938 65.3125 248.75 65.3125C258.938 65.3125 266.781 65.2188 272.281 65.0312L272.562 82.4688H270.688C270.125 72.4688 267.531 67.4375 262.906 67.375L251.938 67.2812L252.031 115.188C252.031 117.375 252.625 119.156 253.812 120.531C254.75 121.656 257.312 122.25 261.5 122.312V124.094H232.719V122.312C232.844 122.312 233.031 122.312 233.281 122.312C233.531 122.312 233.719 122.312 233.844 122.312C237.156 122.25 239.25 121.656 240.125 120.531Z" fill="white"/>
</svg>
