<svg width="135" height="135" viewBox="0 0 135 135" fill="none" xmlns="http://www.w3.org/2000/svg">
<g clip-path="url(#clip0_4634_254)">
<path d="M105.312 59.8748C105.312 37.3748 87.3125 18.8123 64.8125 18.2498C41.75 17.6873 22.625 36.2498 22.0625 58.7498L9.6875 84.0623V85.1873C9.6875 86.8748 10.8125 87.9998 12.5 87.9998H23.75V102.625C23.75 108.812 28.8125 113.875 35 113.875H40.625V127.937C40.625 129.625 41.75 130.75 43.4375 130.75C45.125 130.75 46.25 129.625 46.25 127.937V113.875H49.0625C50.75 113.875 51.875 112.75 51.875 111.062C51.875 109.375 50.75 108.25 49.0625 108.25H35C31.625 108.25 29.375 106 29.375 102.625V85.7498C29.375 84.0623 28.25 82.9373 26.5625 82.9373H17L27.6875 60.9998C27.6875 60.4373 28.25 60.4373 27.6875 59.8748C27.6875 40.1873 43.4375 23.8748 63.125 23.8748C82.8125 23.8748 99.125 39.6248 99.6875 59.3123L87.875 103.75V105.437L94.0625 129.062C94.625 130.187 95.75 131.312 96.875 131.312H97.4375C99.125 130.75 99.6875 129.625 99.6875 127.937L94.0625 104.875L105.875 60.9998C105.312 60.4373 105.312 59.8748 105.312 59.8748Z" fill="black"/>
<g clip-path="url(#clip1_4634_254)">
<path d="M62.0001 85.3337C58.7723 85.3337 55.739 84.7208 52.9001 83.495C50.0612 82.2692 47.5918 80.6071 45.4918 78.5087C43.3918 76.4102 41.7296 73.9408 40.5054 71.1003C39.2812 68.2599 38.6683 65.2265 38.6668 62.0003C38.6652 58.7741 39.2781 55.7408 40.5054 52.9003C41.7328 50.0599 43.3949 47.5904 45.4918 45.492C47.5886 43.3935 50.0581 41.7314 52.9001 40.5057C55.7421 39.2799 58.7754 38.667 62.0001 38.667C65.2247 38.667 68.2581 39.2799 71.1001 40.5057C73.9421 41.7314 76.4115 43.3935 78.5084 45.492C80.6053 47.5904 82.2682 50.0599 83.4971 52.9003C84.726 55.7408 85.3381 58.7741 85.3334 62.0003C85.3288 65.2265 84.7159 68.2599 83.4948 71.1003C82.2736 73.9408 80.6115 76.4102 78.5084 78.5087C76.4053 80.6071 73.9359 82.27 71.1001 83.4973C68.2643 84.7247 65.231 85.3368 62.0001 85.3337ZM62.0001 80.667C67.2112 80.667 71.6251 78.8587 75.2417 75.242C78.8584 71.6253 80.6668 67.2114 80.6668 62.0003C80.6668 56.7892 78.8584 52.3753 75.2417 48.7587C71.6251 45.142 67.2112 43.3337 62.0001 43.3337C56.789 43.3337 52.3751 45.142 48.7584 48.7587C45.1418 52.3753 43.3334 56.7892 43.3334 62.0003C43.3334 67.2114 45.1418 71.6253 48.7584 75.242C52.3751 78.8587 56.789 80.667 62.0001 80.667ZM62.0001 76.0003C58.1112 76.0003 54.8056 74.6392 52.0834 71.917C49.3612 69.1948 48.0001 65.8892 48.0001 62.0003C48.0001 58.1114 49.3612 54.8059 52.0834 52.0837C54.8056 49.3614 58.1112 48.0003 62.0001 48.0003C65.889 48.0003 69.1945 49.3614 71.9167 52.0837C74.639 54.8059 76.0001 58.1114 76.0001 62.0003C76.0001 65.8892 74.639 69.1948 71.9167 71.917C69.1945 74.6392 65.889 76.0003 62.0001 76.0003ZM62.0001 71.3337C64.5667 71.3337 66.764 70.4198 68.5917 68.592C70.4195 66.7642 71.3334 64.567 71.3334 62.0003C71.3334 59.4337 70.4195 57.2364 68.5917 55.4087C66.764 53.5809 64.5667 52.667 62.0001 52.667C59.4334 52.667 57.2362 53.5809 55.4084 55.4087C53.5806 57.2364 52.6668 59.4337 52.6668 62.0003C52.6668 64.567 53.5806 66.7642 55.4084 68.592C57.2362 70.4198 59.4334 71.3337 62.0001 71.3337ZM62.0001 66.667C60.7167 66.667 59.6185 66.2104 58.7054 65.2973C57.7923 64.3842 57.335 63.2852 57.3334 62.0003C57.3319 60.7154 57.7892 59.6172 58.7054 58.7057C59.6216 57.7941 60.7199 57.3368 62.0001 57.3337C63.2803 57.3305 64.3793 57.7879 65.2971 58.7057C66.2149 59.6234 66.6714 60.7217 66.6667 62.0003C66.6621 63.279 66.2055 64.378 65.2971 65.2973C64.3886 66.2167 63.2896 66.6732 62.0001 66.667Z" fill="#272A79"/>
<path d="M61.9999 62.6663C62.3681 62.6663 62.6666 62.3679 62.6666 61.9997C62.6666 61.6315 62.3681 61.333 61.9999 61.333C61.6317 61.333 61.3333 61.6315 61.3333 61.9997C61.3333 62.3679 61.6317 62.6663 61.9999 62.6663Z" fill="#E24895" stroke="#E24895" stroke-width="3" stroke-linecap="round" stroke-linejoin="round"/>
<path d="M52.6667 62C52.6667 63.2257 52.9081 64.4393 53.3771 65.5717C53.8462 66.7041 54.5337 67.733 55.4003 68.5997C56.267 69.4663 57.2959 70.1538 58.4283 70.6229C59.5607 71.0919 60.7743 71.3333 62 71.3333M52.6667 62C52.6667 60.7743 52.9081 59.5607 53.3771 58.4283C53.8462 57.2959 54.5337 56.267 55.4003 55.4003C56.267 54.5337 57.2959 53.8462 58.4283 53.3771C59.5607 52.9081 60.7743 52.6667 62 52.6667M52.6667 62H50M62 71.3333C63.2257 71.3333 64.4393 71.0919 65.5717 70.6229C66.7041 70.1538 67.733 69.4663 68.5997 68.5997C69.4663 67.733 70.1538 66.7041 70.6229 65.5717C71.0919 64.4393 71.3333 63.2257 71.3333 62M62 71.3333V74M71.3333 62C71.3333 60.7743 71.0919 59.5607 70.6229 58.4283C70.1538 57.2959 69.4663 56.267 68.5997 55.4003C67.733 54.5337 66.7041 53.8462 65.5717 53.3771C64.4393 52.9081 63.2257 52.6667 62 52.6667M71.3333 62H74M62 52.6667V50" stroke="#E24895" stroke-width="3" stroke-linecap="round" stroke-linejoin="round"/>
</g>
</g>
<defs>
<clipPath id="clip0_4634_254">
<rect width="135" height="135" fill="white"/>
</clipPath>
<clipPath id="clip1_4634_254">
<rect width="56" height="56" fill="white" transform="translate(34 34)"/>
</clipPath>
</defs>
</svg>
