<svg width="198" height="198" viewBox="0 0 198 198" fill="none" xmlns="http://www.w3.org/2000/svg">
<g id="Color">
<g id="hover" clip-path="url(#clip0_5043_6877)">
<path id="Vector" d="M157.35 106.755C154.857 105.71 151.961 106.284 149.471 106.742C146.025 107.388 144.566 107.247 142.055 106.24C136.707 104.122 134.814 98.9212 137.549 93.8605L143.346 83.1404C152.243 66.7788 145.329 47.7852 127.997 40.9702C115.234 35.981 100.728 36.4915 87.2461 41.3985C71.503 47.1286 57.1415 58.8534 48.5452 74.7216C32.5367 104.17 44.9741 138.342 76.1667 150.611C91.6718 156.715 109.382 156.126 125.082 150.54L125.562 150.365C141.221 144.666 154.812 133.99 162.229 120.247C164.992 115.176 161.853 108.669 157.35 106.755Z" stroke="#405A88" stroke-width="5" stroke-miterlimit="10"/>
<path id="Vector_2" d="M65.4016 105.701C70.4005 103.882 72.9779 98.3546 71.1585 93.3558C69.339 88.3569 63.8118 85.7795 58.8129 87.5989C53.8141 89.4184 51.2367 94.9457 53.0561 99.9445C54.8755 104.943 60.4028 107.521 65.4016 105.701Z" fill="#FEEEAC" stroke="#FFDE54"/>
<path id="Vector_3" d="M78.2591 133.99C83.2579 132.171 85.8353 126.643 84.0159 121.644C82.1965 116.646 76.6692 114.068 71.6703 115.888C66.6715 117.707 64.0941 123.234 65.9135 128.233C67.7329 133.232 73.2602 135.809 78.2591 133.99Z" fill="#1D77C8" stroke="#035FB3"/>
<path id="Vector_4" d="M81.427 79.3848C86.4259 77.5654 89.0033 72.0381 87.1839 67.0392C85.3644 62.0404 79.8371 59.463 74.8383 61.2824C69.8395 63.1018 67.262 68.6291 69.0815 73.628C70.9009 78.6268 76.4282 81.2042 81.427 79.3848Z" fill="#8E89A4" stroke="#786BB2"/>
<path id="Vector_5" d="M115.06 143.649C122.559 140.92 126.425 132.629 123.696 125.13C120.967 117.632 112.676 113.766 105.177 116.495C97.6791 119.224 93.813 127.515 96.5421 135.014C99.2713 142.512 107.562 146.378 115.06 143.649Z" fill="#1257B7" stroke="#003B8D"/>
<path id="Vector_6" d="M110.824 68.6841C115.823 66.8647 118.401 61.3374 116.581 56.3386C114.762 51.3397 109.235 48.7623 104.236 50.5817C99.2369 52.4012 96.6595 57.9285 98.4789 62.9273C100.298 67.9261 105.826 70.5036 110.824 68.6841Z" fill="#87B1F7" stroke="#4188FE"/>
</g>
<g id="default" clip-path="url(#clip1_5043_6877)">
<path id="Vector_7" d="M157.35 106.755C154.857 105.71 151.961 106.284 149.471 106.742C146.025 107.388 144.566 107.247 142.055 106.24C136.707 104.122 134.814 98.9212 137.549 93.8605L143.346 83.1404C152.243 66.7788 145.329 47.7852 127.997 40.9702C115.234 35.981 100.728 36.4915 87.2461 41.3985C71.503 47.1286 57.1415 58.8534 48.5452 74.7216C32.5367 104.17 44.9741 138.342 76.1667 150.611C91.6718 156.715 109.382 156.126 125.082 150.54L125.562 150.365C141.221 144.666 154.812 133.99 162.229 120.247C164.992 115.176 161.853 108.669 157.35 106.755Z" stroke="#272A79" stroke-width="5" stroke-miterlimit="10"/>
<path id="Vector_8" d="M65.4016 105.701C70.4005 103.882 72.9779 98.3546 71.1585 93.3558C69.339 88.3569 63.8118 85.7795 58.8129 87.5989C53.8141 89.4184 51.2367 94.9457 53.0561 99.9445C54.8755 104.943 60.4028 107.521 65.4016 105.701Z" fill="#FFD215" stroke="#E7BD0D"/>
<path id="Vector_9" d="M78.2591 133.99C83.2579 132.171 85.8353 126.643 84.0159 121.644C82.1965 116.646 76.6692 114.068 71.6703 115.888C66.6715 117.707 64.0941 123.234 65.9135 128.233C67.7329 133.232 73.2602 135.809 78.2591 133.99Z" fill="#774FCA" stroke="#5F2DC8"/>
<path id="Vector_10" d="M81.427 79.3848C86.4259 77.5654 89.0033 72.0381 87.1839 67.0392C85.3644 62.0404 79.8371 59.463 74.8383 61.2824C69.8395 63.1018 67.262 68.6291 69.0815 73.628C70.9009 78.6268 76.4282 81.2042 81.427 79.3848Z" fill="#EF5EA7" stroke="#EF3D96"/>
<path id="Vector_11" d="M115.06 143.649C122.559 140.92 126.425 132.629 123.696 125.13C120.967 117.632 112.676 113.766 105.177 116.495C97.6791 119.224 93.813 127.515 96.5421 135.014C99.2713 142.512 107.562 146.378 115.06 143.649Z" fill="#5917C1" stroke="#4202A6"/>
<path id="Vector_12" d="M110.824 68.6841C115.823 66.8647 118.401 61.3374 116.581 56.3386C114.762 51.3397 109.235 48.7623 104.236 50.5817C99.2369 52.4012 96.6595 57.9285 98.4789 62.9273C100.298 67.9261 105.826 70.5036 110.824 68.6841Z" fill="#5AC4FF" stroke="#25ABF6"/>
</g>
</g>
<defs>
<clipPath id="clip0_5043_6877">
<rect width="154" height="154" fill="white" transform="translate(0 52.6711) rotate(-20)"/>
</clipPath>
<clipPath id="clip1_5043_6877">
<rect width="154" height="154" fill="white" transform="translate(0 52.6711) rotate(-20)"/>
</clipPath>
</defs>
</svg>
