<svg width="122" height="88" viewBox="0 0 122 88" fill="none" xmlns="http://www.w3.org/2000/svg">
<g id="DimmedDetails">
<g id="eye-hover">
<g id="Eye" filter="url(#filter0_f_5043_6152)">
<path id="Vector" d="M61.3658 25.0398C48.9972 25.0398 36.3096 31.7766 26.3213 45.2501C26.0362 45.6389 25.88 46.0985 25.8724 46.5709C25.8647 47.0432 26.0061 47.5071 26.2785 47.9039C33.9529 59.209 46.4708 68.05 61.3658 68.05C76.099 68.05 88.8739 59.1821 96.5626 47.8516C96.8287 47.4626 96.9702 47.0098 96.9702 46.5471C96.9702 46.0845 96.8287 45.6317 96.5626 45.2426C88.8564 34.0421 75.9879 25.0398 61.3658 25.0398Z" stroke="#272A79" stroke-width="4" stroke-linecap="round" stroke-linejoin="round"/>
<g id="Vector_2">
<path d="M61.4229 58.4934C68.4355 58.4934 74.1203 53.1437 74.1203 46.5444C74.1203 39.9452 68.4355 34.5955 61.4229 34.5955C54.4104 34.5955 48.7256 39.9452 48.7256 46.5444C48.7256 53.1437 54.4104 58.4934 61.4229 58.4934Z" fill="#D9D9D9"/>
<path d="M61.4229 58.4934C68.4355 58.4934 74.1203 53.1437 74.1203 46.5444C74.1203 39.9452 68.4355 34.5955 61.4229 34.5955C54.4104 34.5955 48.7256 39.9452 48.7256 46.5444C48.7256 53.1437 54.4104 58.4934 61.4229 58.4934Z" fill="#97A2DF"/>
<path d="M61.4229 58.4934C68.4355 58.4934 74.1203 53.1437 74.1203 46.5444C74.1203 39.9452 68.4355 34.5955 61.4229 34.5955C54.4104 34.5955 48.7256 39.9452 48.7256 46.5444C48.7256 53.1437 54.4104 58.4934 61.4229 58.4934Z" stroke="#272A79" stroke-width="8" stroke-miterlimit="10"/>
</g>
<g id="Eye lashes">
<path id="Line 22" d="M22.9359 30.2316C22.1536 29.4518 20.8901 29.4566 20.1138 30.2424C19.3376 31.0282 19.3424 32.2973 20.1247 33.0771L21.5303 31.6543L22.9359 30.2316ZM29.9727 40.0696L31.3783 38.6468L22.9359 30.2316L21.5303 31.6543L20.1247 33.0771L28.567 41.4923L29.9727 40.0696Z" fill="#272A79"/>
<path id="Line 25" d="M32.6697 21.6924C32.045 20.7814 30.8023 20.5523 29.8939 21.1807C28.9855 21.8091 28.7555 23.0571 29.3801 23.9681L31.0249 22.8302L32.6697 21.6924ZM37.8848 32.835L39.5295 31.6971L32.6697 21.6924L31.0249 22.8302L29.3801 23.9681L36.24 33.9728L37.8848 32.835Z" fill="#272A79"/>
<path id="Line 26" d="M47.0497 15.7499C46.6804 14.7089 45.5379 14.1668 44.498 14.5391C43.458 14.9114 42.9144 16.0571 43.2838 17.0981L45.1668 16.424L47.0497 15.7499ZM49.126 27.5825L51.009 26.9084L47.0497 15.7499L45.1668 16.424L43.2838 17.0981L47.243 28.2566L49.126 27.5825Z" fill="#272A79"/>
<path id="Line 28" d="M97.3807 34.5897C98.2111 33.8615 98.297 32.5952 97.5723 31.7616C96.8477 30.9279 95.5871 30.8424 94.7566 31.5707L96.0686 33.0802L97.3807 34.5897ZM91.3213 37.2434L92.6333 38.7529L97.3807 34.5897L96.0686 33.0802L94.7566 31.5707L90.0093 35.7339L91.3213 37.2434Z" fill="#272A79"/>
<path id="Line 29" d="M89.8316 24.6356C90.4314 23.708 90.1676 22.4668 89.2425 21.8633C88.3174 21.2598 87.0812 21.5224 86.4815 22.45L88.1565 23.5428L89.8316 24.6356ZM83.4092 30.885L85.0842 31.9778L89.8316 24.6356L88.1565 23.5428L86.4815 22.45L81.7341 29.7922L83.4092 30.885Z" fill="#272A79"/>
<path id="Line 30" d="M77.4107 17.7656C77.7289 16.7079 77.13 15.5904 76.0731 15.2696C75.0161 14.9488 73.9013 15.5462 73.5831 16.6039L75.4969 17.1848L77.4107 17.7656ZM72.332 27.7061L74.2458 28.2869L77.4107 17.7656L75.4969 17.1848L73.5831 16.6039L70.4182 27.1252L72.332 27.7061Z" fill="#272A79"/>
<path id="Line 27" d="M62.0479 15.0001C62.0479 13.8955 61.1524 13.0001 60.0479 13.0001C58.9433 13.0001 58.0479 13.8955 58.0479 15.0001H60.0479H62.0479ZM60.0479 26.1267H62.0479V15.0001H60.0479H58.0479V26.1267H60.0479Z" fill="#272A79"/>
</g>
</g>
<g id="Eye_2" filter="url(#filter1_f_5043_6152)">
<path id="Vector_3" d="M61.3658 25.0398C48.9972 25.0398 36.3096 31.7766 26.3213 45.2501C26.0362 45.6389 25.88 46.0985 25.8724 46.5709C25.8647 47.0432 26.0061 47.5071 26.2785 47.9039C33.9529 59.209 46.4708 68.05 61.3658 68.05C76.099 68.05 88.8739 59.1821 96.5626 47.8516C96.8287 47.4626 96.9702 47.0098 96.9702 46.5471C96.9702 46.0845 96.8287 45.6317 96.5626 45.2426C88.8564 34.0421 75.9879 25.0398 61.3658 25.0398Z" stroke="#272A79" stroke-width="4" stroke-linecap="round" stroke-linejoin="round"/>
<g id="Vector_4">
<path d="M61.4229 58.4934C68.4355 58.4934 74.1203 53.1437 74.1203 46.5444C74.1203 39.9452 68.4355 34.5955 61.4229 34.5955C54.4104 34.5955 48.7256 39.9452 48.7256 46.5444C48.7256 53.1437 54.4104 58.4934 61.4229 58.4934Z" fill="#D9D9D9"/>
<path d="M61.4229 58.4934C68.4355 58.4934 74.1203 53.1437 74.1203 46.5444C74.1203 39.9452 68.4355 34.5955 61.4229 34.5955C54.4104 34.5955 48.7256 39.9452 48.7256 46.5444C48.7256 53.1437 54.4104 58.4934 61.4229 58.4934Z" fill="#97A2DF"/>
<path d="M61.4229 58.4934C68.4355 58.4934 74.1203 53.1437 74.1203 46.5444C74.1203 39.9452 68.4355 34.5955 61.4229 34.5955C54.4104 34.5955 48.7256 39.9452 48.7256 46.5444C48.7256 53.1437 54.4104 58.4934 61.4229 58.4934Z" stroke="#272A79" stroke-width="8" stroke-miterlimit="10"/>
</g>
<g id="Eye lashes_2">
<path id="Line 22_2" d="M22.9359 30.2316C22.1536 29.4518 20.8901 29.4566 20.1138 30.2424C19.3376 31.0282 19.3424 32.2973 20.1247 33.0771L21.5303 31.6543L22.9359 30.2316ZM29.9727 40.0696L31.3783 38.6468L22.9359 30.2316L21.5303 31.6543L20.1247 33.0771L28.567 41.4923L29.9727 40.0696Z" fill="#272A79"/>
<path id="Line 25_2" d="M32.6697 21.6924C32.045 20.7814 30.8023 20.5523 29.8939 21.1807C28.9855 21.8091 28.7555 23.0571 29.3801 23.9681L31.0249 22.8302L32.6697 21.6924ZM37.8848 32.835L39.5295 31.6971L32.6697 21.6924L31.0249 22.8302L29.3801 23.9681L36.24 33.9728L37.8848 32.835Z" fill="#272A79"/>
<path id="Line 26_2" d="M47.0497 15.7499C46.6804 14.7089 45.5379 14.1668 44.498 14.5391C43.458 14.9114 42.9144 16.0571 43.2838 17.0981L45.1668 16.424L47.0497 15.7499ZM49.126 27.5825L51.009 26.9084L47.0497 15.7499L45.1668 16.424L43.2838 17.0981L47.243 28.2566L49.126 27.5825Z" fill="#272A79"/>
<path id="Line 28_2" d="M97.3807 34.5897C98.2111 33.8615 98.297 32.5952 97.5723 31.7616C96.8477 30.9279 95.5871 30.8424 94.7566 31.5707L96.0686 33.0802L97.3807 34.5897ZM91.3213 37.2434L92.6333 38.7529L97.3807 34.5897L96.0686 33.0802L94.7566 31.5707L90.0093 35.7339L91.3213 37.2434Z" fill="#272A79"/>
<path id="Line 29_2" d="M89.8316 24.6356C90.4314 23.708 90.1676 22.4668 89.2425 21.8633C88.3174 21.2598 87.0812 21.5224 86.4815 22.45L88.1565 23.5428L89.8316 24.6356ZM83.4092 30.885L85.0842 31.9778L89.8316 24.6356L88.1565 23.5428L86.4815 22.45L81.7341 29.7922L83.4092 30.885Z" fill="#272A79"/>
<path id="Line 30_2" d="M77.4107 17.7656C77.7289 16.7079 77.13 15.5904 76.0731 15.2696C75.0161 14.9488 73.9013 15.5462 73.5831 16.6039L75.4969 17.1848L77.4107 17.7656ZM72.332 27.7061L74.2458 28.2869L77.4107 17.7656L75.4969 17.1848L73.5831 16.6039L70.4182 27.1252L72.332 27.7061Z" fill="#272A79"/>
<path id="Line 27_2" d="M62.0479 15.0001C62.0479 13.8955 61.1524 13.0001 60.0479 13.0001C58.9433 13.0001 58.0479 13.8955 58.0479 15.0001H60.0479H62.0479ZM60.0479 26.1267H62.0479V15.0001H60.0479H58.0479V26.1267H60.0479Z" fill="#272A79"/>
</g>
</g>
</g>
<g id="eye-default">
<path id="Vector_5" d="M103.53 34.0001C103.53 29.0465 106.043 24.0029 109.53 20.5001C113.018 16.9974 113.53 17.5001 117.53 17.5001" stroke="#272A79" stroke-width="8" stroke-linecap="square" stroke-linejoin="round"/>
<path id="Vector_6" d="M4.61125 15.4508L4.53027 27.3962" stroke="#272A79" stroke-width="9" stroke-linecap="square" stroke-linejoin="round"/>
<path id="Vector_7" d="M11.5303 12.8889C11.5303 66.2222 20.8303 84 58.0303 84C95.2303 84 104.53 66.2222 104.53 12.8889C104.53 12.8889 95.2303 4 58.0303 4C20.8303 4 11.5303 12.8889 11.5303 12.8889Z" stroke="#272A79" stroke-width="8" stroke-linecap="round" stroke-linejoin="round"/>
<g id="Eye_3">
<path id="Vector_8" d="M59.3682 23.0398C46.999 23.0398 34.3109 29.7765 24.3223 43.25C24.0372 43.6388 23.881 44.0984 23.8733 44.5708C23.8657 45.0431 24.007 45.507 24.2795 45.9038C31.9542 57.2088 44.4725 66.0498 59.3682 66.0498C74.1019 66.0498 86.8773 57.182 94.5664 45.8515C94.8324 45.4625 94.9739 45.0096 94.9739 44.547C94.9739 44.0844 94.8324 43.6316 94.5664 43.2425C86.8599 32.042 73.9908 23.0398 59.3682 23.0398Z" stroke="#272A79" stroke-width="4" stroke-linecap="round" stroke-linejoin="round"/>
<g id="Vector_9">
<path d="M59.4244 56.4933C66.4373 56.4933 72.1223 51.1436 72.1223 44.5444C72.1223 37.9452 66.4373 32.5955 59.4244 32.5955C52.4116 32.5955 46.7266 37.9452 46.7266 44.5444C46.7266 51.1436 52.4116 56.4933 59.4244 56.4933Z" fill="#D9D9D9"/>
<path d="M59.4244 56.4933C66.4373 56.4933 72.1223 51.1436 72.1223 44.5444C72.1223 37.9452 66.4373 32.5955 59.4244 32.5955C52.4116 32.5955 46.7266 37.9452 46.7266 44.5444C46.7266 51.1436 52.4116 56.4933 59.4244 56.4933Z" fill="#97A2DF"/>
<path d="M59.4244 56.4933C66.4373 56.4933 72.1223 51.1436 72.1223 44.5444C72.1223 37.9452 66.4373 32.5955 59.4244 32.5955C52.4116 32.5955 46.7266 37.9452 46.7266 44.5444C46.7266 51.1436 52.4116 56.4933 59.4244 56.4933Z" stroke="#272A79" stroke-width="8" stroke-miterlimit="10"/>
</g>
<g id="Eye lashes_3">
<path id="Line 22_3" d="M20.9356 28.2317C20.1533 27.4519 18.8898 27.4567 18.1135 28.2425C17.3372 29.0282 17.342 30.2973 18.1244 31.0771L19.53 29.6544L20.9356 28.2317ZM27.9727 38.0696L29.3783 36.6468L20.9356 28.2317L19.53 29.6544L18.1244 31.0771L26.567 39.4923L27.9727 38.0696Z" fill="#272A79"/>
<path id="Line 25_3" d="M30.6704 19.6922C30.0458 18.7812 28.803 18.5521 27.8946 19.1805C26.9862 19.8089 26.7562 21.0569 27.3808 21.9678L29.0256 20.83L30.6704 19.6922ZM35.8857 30.8347L37.5305 29.6969L30.6704 19.6922L29.0256 20.83L27.3808 21.9678L34.2409 31.9725L35.8857 30.8347Z" fill="#272A79"/>
<path id="Line 26_3" d="M45.0506 13.75C44.6812 12.709 43.5387 12.1669 42.4988 12.5392C41.4588 12.9115 40.9152 14.0571 41.2846 15.0981L43.1676 14.424L45.0506 13.75ZM47.127 25.5825L49.0099 24.9085L45.0506 13.75L43.1676 14.424L41.2846 15.0981L45.244 26.2566L47.127 25.5825Z" fill="#272A79"/>
<path id="Line 28_3" d="M95.3838 32.5895C96.2143 31.8612 96.3001 30.595 95.5755 29.7614C94.8509 28.9277 93.5902 28.8423 92.7597 29.5705L94.0718 31.08L95.3838 32.5895ZM89.3242 35.2432L90.6363 36.7526L95.3838 32.5895L94.0718 31.08L92.7597 29.5705L88.0122 33.7337L89.3242 35.2432Z" fill="#272A79"/>
<path id="Line 29_3" d="M87.8347 22.6356C88.4345 21.708 88.1708 20.4668 87.2456 19.8633C86.3205 19.2598 85.0843 19.5225 84.4846 20.4501L86.1597 21.5428L87.8347 22.6356ZM81.4121 28.885L83.0872 29.9777L87.8347 22.6356L86.1597 21.5428L84.4846 20.4501L79.737 27.7923L81.4121 28.885Z" fill="#272A79"/>
<path id="Line 30_3" d="M75.4138 15.7654C75.732 14.7077 75.1331 13.5902 74.0761 13.2694C73.0192 12.9486 71.9044 13.546 71.5862 14.6038L73.5 15.1846L75.4138 15.7654ZM70.335 25.7058L72.2488 26.2866L75.4138 15.7654L73.5 15.1846L71.5862 14.6038L68.4212 25.125L70.335 25.7058Z" fill="#272A79"/>
<path id="Line 27_3" d="M60.0508 12.9999C60.0508 11.8953 59.1554 10.9999 58.0508 10.9999C56.9462 10.9999 56.0508 11.8953 56.0508 12.9999H58.0508H60.0508ZM58.0508 24.1265H60.0508V12.9999H58.0508H56.0508V24.1265H58.0508Z" fill="#272A79"/>
</g>
</g>
</g>
</g>
<defs>
<filter id="filter0_f_5043_6152" x="9.53516" y="3" width="99.4346" height="77.05" filterUnits="userSpaceOnUse" color-interpolation-filters="sRGB">
<feFlood flood-opacity="0" result="BackgroundImageFix"/>
<feBlend mode="normal" in="SourceGraphic" in2="BackgroundImageFix" result="shape"/>
<feGaussianBlur stdDeviation="5" result="effect1_foregroundBlur_5043_6152"/>
</filter>
<filter id="filter1_f_5043_6152" x="15.5352" y="9" width="87.4346" height="65.05" filterUnits="userSpaceOnUse" color-interpolation-filters="sRGB">
<feFlood flood-opacity="0" result="BackgroundImageFix"/>
<feBlend mode="normal" in="SourceGraphic" in2="BackgroundImageFix" result="shape"/>
<feGaussianBlur stdDeviation="2" result="effect1_foregroundBlur_5043_6152"/>
</filter>
</defs>
</svg>
