<svg width="122" height="88" viewBox="0 0 122 88" fill="none" xmlns="http://www.w3.org/2000/svg">
<path d="M104 33.9996C104 29.046 106.513 24.0024 110 20.4996C113.487 16.9969 114 17.4996 118 17.4996" stroke="#272A79" stroke-width="8" stroke-linecap="square" stroke-linejoin="round"/>
<path d="M5.08098 15.4511L5 27.3965" stroke="#272A79" stroke-width="9" stroke-linecap="square" stroke-linejoin="round"/>
<path d="M12 12.8889C12 66.2222 21.3 84 58.5 84C95.7 84 105 66.2222 105 12.8889C105 12.8889 95.7 4 58.5 4C21.3 4 12 12.8889 12 12.8889Z" stroke="#272A79" stroke-width="8" stroke-linecap="round" stroke-linejoin="round"/>
<path d="M59.8374 23.04C47.4683 23.04 34.7802 29.7768 24.7916 43.2502C24.5064 43.6391 24.3502 44.0987 24.3426 44.571C24.335 45.0434 24.4763 45.5072 24.7487 45.904C32.4235 57.2091 44.9418 66.05 59.8374 66.05C74.5712 66.05 87.3466 57.1822 95.0356 45.8518C95.3017 45.4627 95.4431 45.0099 95.4431 44.5473C95.4431 44.0846 95.3017 43.6318 95.0356 43.2428C87.3291 32.0423 74.4601 23.04 59.8374 23.04Z" stroke="#272A79" stroke-width="4" stroke-linecap="round" stroke-linejoin="round"/>
<path d="M59.8941 56.4935C66.907 56.4935 72.592 51.1438 72.592 44.5446C72.592 37.9454 66.907 32.5957 59.8941 32.5957C52.8813 32.5957 47.1963 37.9454 47.1963 44.5446C47.1963 51.1438 52.8813 56.4935 59.8941 56.4935Z" fill="#D9D9D9"/>
<path d="M59.8941 56.4935C66.907 56.4935 72.592 51.1438 72.592 44.5446C72.592 37.9454 66.907 32.5957 59.8941 32.5957C52.8813 32.5957 47.1963 37.9454 47.1963 44.5446C47.1963 51.1438 52.8813 56.4935 59.8941 56.4935Z" fill="#97A2DF"/>
<path d="M59.8941 56.4935C66.907 56.4935 72.592 51.1438 72.592 44.5446C72.592 37.9454 66.907 32.5957 59.8941 32.5957C52.8813 32.5957 47.1963 37.9454 47.1963 44.5446C47.1963 51.1438 52.8813 56.4935 59.8941 56.4935Z" stroke="#272A79" stroke-width="8" stroke-miterlimit="10"/>
<path d="M21.4056 28.2314C20.6233 27.4516 19.3598 27.4565 18.5835 28.2422C17.8071 29.028 17.812 30.2971 18.5943 31.0769L20 29.6541L21.4056 28.2314ZM28.4426 38.0693L29.8483 36.6466L21.4056 28.2314L20 29.6541L18.5943 31.0769L27.037 39.4921L28.4426 38.0693Z" fill="#272A79"/>
<path d="M31.1399 19.6915C30.5152 18.7805 29.2725 18.5514 28.3641 19.1798C27.4557 19.8082 27.2256 21.0561 27.8503 21.9671L29.4951 20.8293L31.1399 19.6915ZM36.3552 30.834L38 29.6962L31.1399 19.6915L29.4951 20.8293L27.8503 21.9671L34.7104 31.9718L36.3552 30.834Z" fill="#272A79"/>
<path d="M45.5196 13.7495C45.1502 12.7085 44.0077 12.1664 42.9678 12.5387C41.9278 12.911 41.3842 14.0566 41.7536 15.0976L43.6366 14.4236L45.5196 13.7495ZM47.5959 25.582L49.4789 24.908L45.5196 13.7495L43.6366 14.4236L41.7536 15.0976L45.713 26.2561L47.5959 25.582Z" fill="#272A79"/>
<path d="M95.8538 32.5895C96.6843 31.8612 96.7701 30.595 96.0455 29.7614C95.3208 28.9277 94.0602 28.8423 93.2297 29.5705L94.5417 31.08L95.8538 32.5895ZM89.7942 35.2432L91.1062 36.7526L95.8538 32.5895L94.5417 31.08L93.2297 29.5705L88.4821 33.7337L89.7942 35.2432Z" fill="#272A79"/>
<path d="M88.3042 22.6353C88.904 21.7078 88.6402 20.4666 87.7151 19.8631C86.79 19.2596 85.5538 19.5223 84.954 20.4498L86.6291 21.5426L88.3042 22.6353ZM81.8816 28.8848L83.5567 29.9775L88.3042 22.6353L86.6291 21.5426L84.954 20.4498L80.2065 27.792L81.8816 28.8848Z" fill="#272A79"/>
<path d="M75.8828 15.7657C76.201 14.7079 75.6021 13.5904 74.5451 13.2696C73.4882 12.9488 72.3734 13.5463 72.0552 14.604L73.969 15.1848L75.8828 15.7657ZM70.804 25.7061L72.7178 26.2869L75.8828 15.7657L73.969 15.1848L72.0552 14.604L68.8902 25.1252L70.804 25.7061Z" fill="#272A79"/>
<path d="M60.5198 12.9994C60.5198 11.8948 59.6243 10.9994 58.5198 10.9994C57.4152 10.9994 56.5198 11.8948 56.5198 12.9994H58.5198H60.5198ZM58.5198 24.126H60.5198V12.9994H58.5198H56.5198V24.126H58.5198Z" fill="#272A79"/>
</svg>
