<svg width="138" height="108" viewBox="0 0 138 108" fill="none" xmlns="http://www.w3.org/2000/svg">
<g id="No Dyslexia">
<text id="letters-hover" fill="black" xml:space="preserve" style="white-space: pre" font-family="Assistant" font-size="64" font-weight="600" letter-spacing="0em"><tspan x="16.1875" y="87.488">pd</tspan></text>
<text id="letters-default" fill="black" xml:space="preserve" style="white-space: pre" font-family="Assistant" font-size="64" font-weight="600" letter-spacing="0em"><tspan x="16.2188" y="87.488">bq</tspan></text>
<g id="wrench">
<path id="Vector" d="M63.0616 68.6345C64.9062 69.125 66.8473 69.1218 68.6903 68.6252C70.5333 68.1286 72.2134 67.1562 73.5623 65.8053C74.9112 64.4544 75.8815 62.7725 76.3758 60.9282C76.8702 59.0839 76.8713 57.1421 76.379 55.2973L99.041 32.3034C100.664 32.7813 102.376 32.8742 104.04 32.5748C105.705 32.2754 107.278 31.592 108.633 30.5787C109.987 29.5654 111.088 28.2502 111.846 26.7374C112.604 25.2245 112.999 23.5558 113 21.8635C112.998 20.3044 112.661 18.7641 112.011 17.3467C111.362 15.9294 110.416 14.6682 109.237 13.6487C108.058 12.6291 106.674 11.875 105.178 11.4374C103.682 10.9997 102.11 10.8889 100.568 11.1123C99.0253 11.3356 97.5489 11.8881 96.2386 12.7321C94.9283 13.5761 93.8147 14.6921 92.9731 16.0043C92.1316 17.3165 91.5818 18.7943 91.3611 20.3376C91.1403 21.881 91.2537 23.4538 91.6936 24.9494L68.709 47.6205C66.8642 47.1257 64.9217 47.1249 63.0765 47.6184C61.2314 48.1119 59.5484 49.0822 58.1966 50.4321C56.8448 51.7819 55.8716 53.4636 55.3748 55.3086C54.878 57.1536 54.875 59.0968 55.3662 60.9433L63.1304 53.1795L69.5028 54.4995L70.8222 60.8708L63.0616 68.6345ZM95.7534 20.1519L95.8476 18.2373L97.4606 17.1966L98.5009 15.5829L100.418 15.4886L102.126 14.6111L103.833 15.4886L105.75 15.5829L106.791 17.1966L108.404 18.2373L108.498 20.1555L109.375 21.8635L108.498 23.5714L108.404 25.4897L106.791 26.5304L105.75 28.1441L103.833 28.2384L102.126 29.1159L100.418 28.2384L98.5009 28.1441L97.4606 26.5304L95.8476 25.4897L95.7534 23.5714L94.8762 21.8635L95.7534 20.1519Z" fill="#FF6C74"/>
</g>
</g>
</svg>
