<svg width="133" height="154" viewBox="0 0 133 154" fill="none" xmlns="http://www.w3.org/2000/svg">
<g id="Tap Trouble">
<g id="Button">
<rect id="Rectangle 91" x="1.5" y="1.5" width="123.813" height="51.7772" rx="8.5" fill="#280571" stroke="#220068" stroke-width="3"/>
<g id="Click Me!" filter="url(#filter0_d_5026_6057)">
<text fill="white" xml:space="preserve" style="white-space: pre" font-family="Assistant" font-size="24" font-weight="600" letter-spacing="0em"><tspan x="17.7501" y="36.0629">Click Me!</tspan></text>
</g>
</g>
<g id="shade">
<path id="right-shade" d="M41.7794 85.9026L52.2377 90.9734L41.7453 51.8153C41.2458 49.9513 41.5003 47.967 42.4528 46.2991C43.4054 44.6311 44.9778 43.4161 46.8243 42.9214C48.6709 42.4266 50.6401 42.6926 52.299 43.6608C53.9579 44.629 55.1704 46.2202 55.6699 48.0842L61.3196 69.1694L73.7216 67.9038C81.7071 67.0082 85.6983 66.5629 88.8366 67.4696C94.0247 68.9765 98.345 72.1622 99.9312 78.0821C101.035 82.2027 100.766 85.2406 100.306 93.3273C100.01 98.4602 99.8651 101.022 99.0964 103.229C97.8298 106.862 95.348 109.931 92.0759 111.912C90.0874 113.116 87.6288 113.775 82.7034 115.094L78.5261 116.214C71.9855 117.966 68.7112 118.844 65.47 118.412C64.89 118.334 64.3143 118.226 63.7454 118.086C60.5696 117.31 57.8182 115.301 52.3183 111.278L34.5059 98.2557C33.063 97.1901 32.0635 95.6222 31.7028 93.8583C31.342 92.0945 31.6458 90.2616 32.5549 88.7176C33.464 87.1736 34.913 86.0296 36.6188 85.5091C38.3246 84.9885 40.1647 85.1289 41.7794 85.9026Z" fill="#566BD6" fill-opacity="0.1"/>
<path id="left-shade" d="M21.8107 112.615L32.2689 117.686L21.7766 78.5281C21.2771 76.664 21.5316 74.6798 22.4841 73.0118C23.4366 71.3439 25.0091 70.1289 26.8556 69.6341C28.7021 69.1394 30.6714 69.4054 32.3303 70.3736C33.9891 71.3418 35.2017 72.9329 35.7011 74.797L41.3509 95.8821L53.7529 94.6166C61.7383 93.7209 65.7296 93.2756 68.8679 94.1824C74.0559 95.6892 78.3762 98.8749 79.9625 104.795C81.0666 108.915 80.7975 111.953 80.3377 120.04C80.0415 125.173 79.8963 127.734 79.1276 129.942C77.8611 133.574 75.3792 136.644 72.1071 138.624C70.1187 139.829 67.66 140.487 62.7347 141.807L58.5573 142.927C52.0168 144.679 48.7425 145.556 45.5013 145.125C44.9212 145.047 44.3455 144.939 43.7766 144.799C40.6009 144.023 37.8495 142.014 32.3496 137.991L14.5372 124.968C13.0943 123.903 12.0948 122.335 11.734 120.571C11.3732 118.807 11.677 116.974 12.5861 115.43C13.4952 113.886 14.9442 112.742 16.65 112.222C18.3559 111.701 20.1959 111.842 21.8107 112.615Z" fill="#566BD6" fill-opacity="0.1"/>
</g>
<g id="hand" filter="url(#filter1_d_5026_6057)">
<path d="M64.7794 86.1899L75.2377 91.2607L64.7453 52.1026C64.2458 50.2385 64.5003 48.2543 65.4528 46.5864C66.4054 44.9184 67.9778 43.7034 69.8243 43.2087C71.6709 42.7139 73.6401 42.9799 75.299 43.9481C76.9579 44.9163 78.1704 46.5075 78.6699 48.3715L84.3196 69.4567L96.7216 68.1911C104.707 67.2955 108.698 66.8502 111.837 67.7569C117.025 69.2638 121.345 72.4494 122.931 78.3694C124.035 82.49 123.766 85.5279 123.306 93.6146C123.01 98.7475 122.865 101.309 122.096 103.517C120.83 107.149 118.348 110.218 115.076 112.199C113.087 113.403 110.629 114.062 105.703 115.382L101.526 116.501C94.9855 118.254 91.7112 119.131 88.47 118.699C87.89 118.622 87.3143 118.513 86.7454 118.374C83.5696 117.598 80.8182 115.589 75.3183 111.565L57.5059 98.543C56.063 97.4774 55.0635 95.9094 54.7028 94.1456C54.342 92.3818 54.6458 90.5489 55.5549 89.0049C56.464 87.4609 57.913 86.3169 59.6188 85.7964C61.3246 85.2758 63.1647 85.4161 64.7794 86.1899Z" fill="#566BD6"/>
<path d="M64.7794 86.1899L75.2377 91.2607L64.7453 52.1026C64.2458 50.2385 64.5003 48.2543 65.4528 46.5864C66.4054 44.9184 67.9778 43.7034 69.8243 43.2087C71.6709 42.7139 73.6401 42.9799 75.299 43.9481C76.9579 44.9163 78.1704 46.5075 78.6699 48.3715L84.3196 69.4567L96.7216 68.1911C104.707 67.2955 108.698 66.8502 111.837 67.7569C117.025 69.2638 121.345 72.4494 122.931 78.3694C124.035 82.49 123.766 85.5279 123.306 93.6146C123.01 98.7475 122.865 101.309 122.096 103.517C120.83 107.149 118.348 110.218 115.076 112.199C113.087 113.403 110.629 114.062 105.703 115.382L101.526 116.501C94.9855 118.254 91.7112 119.131 88.47 118.699C87.89 118.622 87.3143 118.513 86.7454 118.374C83.5696 117.598 80.8182 115.589 75.3183 111.565L57.5059 98.543C56.063 97.4774 55.0635 95.9094 54.7028 94.1456C54.342 92.3818 54.6458 90.5489 55.5549 89.0049C56.464 87.4609 57.913 86.3169 59.6188 85.7964C61.3246 85.2758 63.1647 85.4161 64.7794 86.1899Z" stroke="#495DC3" stroke-width="4" stroke-linecap="round" stroke-linejoin="round"/>
</g>
<g id="arcs">
<path id="Vector 23" d="M113 82C119.014 87.8185 121.148 91.7849 122 100.5M119 73C127.958 78.5211 133.082 97.6799 131 102" stroke="#280571" stroke-width="3" stroke-linecap="round"/>
<path id="Vector 24" d="M31.7616 109.785C32.3533 118.132 34.0204 122.316 40.1489 128.57M21.0109 108.596C19.4828 119.006 30.8659 135.246 35.5135 136.428" stroke="#280571" stroke-width="3" stroke-linecap="round"/>
</g>
</g>
<defs>
<filter id="filter0_d_5026_6057" x="14.9492" y="18.7389" width="96.1035" height="25.304" filterUnits="userSpaceOnUse" color-interpolation-filters="sRGB">
<feFlood flood-opacity="0" result="BackgroundImageFix"/>
<feColorMatrix in="SourceAlpha" type="matrix" values="0 0 0 0 0 0 0 0 0 0 0 0 0 0 0 0 0 0 127 0" result="hardAlpha"/>
<feOffset dy="4"/>
<feGaussianBlur stdDeviation="2"/>
<feComposite in2="hardAlpha" operator="out"/>
<feColorMatrix type="matrix" values="0 0 0 0 0 0 0 0 0 0 0 0 0 0 0 0 0 0 0.25 0"/>
<feBlend mode="normal" in2="BackgroundImageFix" result="effect1_dropShadow_5026_6057"/>
<feBlend mode="normal" in="SourceGraphic" in2="effect1_dropShadow_5026_6057" result="shape"/>
</filter>
<filter id="filter1_d_5026_6057" x="48.5547" y="34.9653" width="81.1523" height="87.8412" filterUnits="userSpaceOnUse" color-interpolation-filters="sRGB">
<feFlood flood-opacity="0" result="BackgroundImageFix"/>
<feColorMatrix in="SourceAlpha" type="matrix" values="0 0 0 0 0 0 0 0 0 0 0 0 0 0 0 0 0 0 127 0" result="hardAlpha"/>
<feOffset dy="-2"/>
<feGaussianBlur stdDeviation="2"/>
<feComposite in2="hardAlpha" operator="out"/>
<feColorMatrix type="matrix" values="0 0 0 0 0 0 0 0 0 0 0 0 0 0 0 0 0 0 0.25 0"/>
<feBlend mode="normal" in2="BackgroundImageFix" result="effect1_dropShadow_5026_6057"/>
<feBlend mode="normal" in="SourceGraphic" in2="effect1_dropShadow_5026_6057" result="shape"/>
</filter>
</defs>
</svg>
